<?xml version="1.0" encoding="UTF-8"?>
<svg id="Layer_1" data-name="Layer 1" xmlns="http://www.w3.org/2000/svg" viewBox="0 0 327.9 328.17">
  <defs>
    <style>
      .cls-1 {
        stroke-width: 0px;
      }
    </style>
  </defs>
  <path class="cls-1" d="m55.75,227.96c-5.17,4.28-10.24,8.78-15.7,12.69-4.97,3.56-12.48,8.27-18.88,7.59-16.56-1.75-.79-22.45,4.19-28.13,4.49-5.12,9.58-9.63,14.68-14.13,2.52-2.23,4.01-2.45,2.11-5.23-1.94-2.84-3.83-5.47-4.96-8.76-.71-2.06-1.94-5.73-1.05-7.89,1.23-2.99,8.33-1.09,10.64-.49,5.58,1.45,9.95,4.6,13.86,8.72,2.43,2.56,4.51,5.19,7.56,7.05,3.25,1.97,5.28,3.68,8.08.68,5.96-6.37,11.8-13.19,17.03-20.17-.62.82-22.08-18.8-22.45-19.21-4.51-4.89-6.62-10.23-9.37-16.03-1.2-2.53-3.02-9.61-5.42-11.14-1.57-1-9.21-1.14-10.77,0-1.22.9-2.12,4.37-2.72,5.75-.92,2.13-1.7,4.28-2.41,6.48-1.53,4.75-2.9,9.54-4.33,14.31-2.76,9.23-5.73,18.37-10.49,26.8-3.29,5.82-9.23,15.01-17.02,14.38-9.49-.77-9.1-10.84-7.33-17.74.58-2.25,1.64-8.84,4.34-9.65,2.55-.77,5.63,4.46,8.53,4.84,9.3,1.22,15.85-10.63,18.88-17.58,3.87-8.89,7.42-18.73,9.65-28.17-8.07-1.17-16.29-1.59-24.31-3.16-6.25-1.23-15.22-4.18-16.69-11.36-1.53-7.49,9.24-10.14,14.66-11.29,8.38-1.79,16.93-1.59,25.43-1.17,1.99.1,8.69,1.56,10.12,0,.83-.91.56-2.92.76-4.09.38-2.17.95-4.3,1.78-6.33.86-2.1,3.22-7.53,5.89-8.07,1.83-.37,3.86,2.54,4.9,3.75,1.56,1.82,2.85,3.87,3.84,6.05,3.99,8.74.91,18.52,3.73,27.51,1.37,4.37,4.03,2.93,8.15,2.66,4.02-.27,8.04-.54,12.06-.83,2.46-.18,9.11.19,10.14-2.11.47-1.05-.9-4.03-1.12-5.19-1.48-7.88-1.84-15.97-.93-23.94.93-8.17,3.53-15.55,6.47-23.15.55-1.43,2.37-4.34,2.09-5.87-.32-1.73-3.53-4.03-4.69-5.25-3.28-3.47-4.37-2.23-8.55-.43-3.8,1.64-7.58,3.29-11.25,5.21-7.41,3.9-14.6,8.2-22.25,11.62-8,3.57-36.51,14.27-37.14-2.9-.28-7.55,9.6-12.83,15.62-15.14,4.05-1.55,4.83-.45,5.05,3.38.18,3.08,1.07,5.68,3.74,7.45,6.99,4.64,17.57,1.23,24.58-1.63,8.43-3.44,17.89-7.52,25.44-12.61-4.19-5.33-8.81-10.32-12.72-15.87-3.61-5.13-7.8-11.43-7.41-18.01,1.06-17.51,22.64-1.31,28.6,4,5.12,4.56,9.78,9.69,14.23,14.9,2.94,3.44,3.2,2.25,6.58-.12,2.58-1.81,5.39-3.27,8.44-4.11,1.65-.45,6.24-1.77,7.59-.04,1.13,1.44-.26,7.11-.25,8.83.02,6.03-6.43,12.95-10.87,16.73-2.69,2.29-4.66,4.71-6.33,7.84-2.4,4.47-1.81,4.81,1.88,8.26,2.85,2.66,5.78,5.24,8.79,7.73,2.74,2.27,6.43,6.24,9.8,7.39,1.13.36,8.73-11.45,9.77-12.75,3.18-3.98,6.79-7.62,10.73-10.85,2.06-1.68,4.21-3.26,6.44-4.7s4.69-2.09,7.01-3.21c2.19-1.06,4.39-2.09,6.6-3.09,1.56-.71,4.23-1.24,5.34-2.53,1.27-1.47,1.61-9.66.32-11.3-.98-1.25-4.73-2.06-6.18-2.63-2.29-.9-4.58-1.81-6.9-2.65-4.6-1.67-9.3-3.07-13.98-4.49-8.83-2.68-17.93-5.17-25.97-9.82-5.74-3.31-14.45-9.26-14.43-16.78.02-8.25,8.69-9.64,15.1-8.4,3.11.6,9.13,1.51,11.44,3.96,2.75,2.92-2.67,5.29-3.65,8.16-3.1,9.04,9.11,16.56,15.67,19.59,9.14,4.22,19.72,8.08,29.55,10.23.62-7.19,1-14.52,2.45-21.61,1.11-5.43,3.08-13.43,7.74-16.98,13.82-10.51,16.63,17.97,16.93,25.56.13,3.28.09,6.56-.02,9.83-.12,3.24-1.25,7.72-.68,10.9.47,2.61,2.84,1.9,5.24,2.34,2.88.52,16.45,4.93,13.34,9.52-.82,1.21-2.54,1.58-3.55,2.62-3.88,3.98-9.18,4.93-14.49,5.93-3.9.73-7.85,1.17-11.82,1.3-2.74.09-7.94-.83-9.73,2.03-.9,1.44-.37,3.41-.31,5,.14,4.13.4,8.25.79,12.36.33,3.44-.01,8.87,1.66,11.91.35.64,12.28-2.21,13.68-2.29,4.33-.27,8.74-.34,13.08-.01,5.8.44,11.55,1.54,17.1,3.28,2.78.87,5.72,1.81,8.32,3.16,2.16,1.13,4.58,2.76,7.19,2.16,2.18-.51,7.56-5.84,7.47-8.01-.08-1.89-1.86-4.58-2.63-6.37-.83-1.95-1.66-3.91-2.56-5.83-2.13-4.59-4.67-8.97-7.08-13.42-4.36-8.05-8.54-16.3-11.06-25.14-1.93-6.78-4.38-17.95,2.12-23.15,6.6-5.28,13.12.97,16.69,6.48,1.54,2.37,4.53,6.74,4.49,9.7-.06,3.93-5.08,2.04-7.79,3.12-9.01,3.57-5.86,17.56-3.52,24.37,1.72,5,4.14,9.73,6.48,14.46,2.37,4.8,4.44,10.3,7.54,14.66,5.75-4.78,11.67-9.37,17.73-13.74,5.08-3.67,11.06-7.3,17.63-6.12,15.19,2.73-.3,22.32-5.11,27.81-4.69,5.35-9.96,10.19-15.35,14.81-3.38,2.9-2.25,2.94.1,6.3,1.86,2.67,3.31,5.57,4.05,8.76.36,1.55,1.23,3.75.93,5.35-.35,1.83-2.42,2.14-4.1,2.18-8.07.21-16.46-3.84-21.26-10.35-2.03-2.75-4.99-5.14-7.87-6.93-4.19-2.61-5.05-2.74-8.29.85-5.64,6.25-10.84,12.58-15.86,19.34.17-.23,13.36,10.27,14.52,11.32,8.5,7.72,14.24,16.37,18.57,26.93.93,2.26,2.04,6.61,4.11,8.1,1.96,1.41,9.58.96,11.11-.69,2.45-2.63,3.87-9.01,4.94-12.4,1.59-5.05,3.03-10.15,4.57-15.22,2.61-8.59,5.44-17.21,9.94-25.02,3.44-5.97,9.07-14.77,16.99-14.46,8.8.34,9.22,9.9,7.63,16.42-.58,2.36-1.75,9.59-4.12,10.86-2.31,1.24-5.95-3.98-8.36-4.56-9.45-2.28-15.7,9.86-18.85,16.6-4.3,9.18-7.85,19.25-10.32,29.09,8.07.92,16.22,1.69,24.23,3.06,6.13,1.05,14.65,4.08,16.46,10.85,3.98,14.9-31.6,13.46-39.26,13.08-2.11-.1-8.79-1.63-10.41-.26-.89.75-.74,3.34-.91,4.34-.34,1.94-.84,3.87-1.55,5.7-.97,2.48-2.97,7.3-5.7,8.33-2.8,1.05-6.83-5.24-8.03-7.22-3.6-5.94-3.67-12.36-3.28-19.08.23-3.95-.23-7.88-1.87-11.54-1.62-3.64-6.99-1.84-10.47-1.6-4.15.29-8.29.63-12.43,1.04-3.37.33-7.46-.78-6.83,3.34,1.48,9.59,2.39,19.6,1.25,29.37-.58,4.95-1.69,9.84-3.44,14.51-1.43,3.81-5.46,9.06-4.23,13.36.61,2.14,2.84,3.57,4.31,5.08,3.19,3.27,5.68.98,9.51-.63,3.96-1.66,7.85-3.43,11.65-5.42,7.36-3.85,14.5-8.17,22.1-11.56,8-3.56,36.85-13.07,35.82,4.43-.41,7.03-10.48,12.81-16.48,14.61-4.82,1.45-3.74-1.96-4.3-5.43-.45-2.81-1.96-4.99-4.51-6.3-8.17-4.2-17.79-.05-25.45,3.19-8.16,3.46-16.4,7.13-24.02,11.67,4.32,5.58,8.87,10.98,13.13,16.6,3.99,5.25,8.37,11.96,6.99,18.92-3.26,16.41-25.36-2.54-30.83-7.72-2.35-2.22-4.59-4.55-6.77-6.93-1.81-1.97-4.52-6.62-6.93-7.72-2.09-.96-4.07,1.63-5.79,2.71-2.81,1.77-5.93,3.13-9.21,3.76-1.36.26-4.24,1.02-5.34-.26-1-1.16-.38-4.76-.25-6.19.54-5.63,2.9-10.73,6.51-15.06,3.26-3.92,7.63-6.73,10.3-11.04,2.17-3.5,3.2-5.01.06-7.96-6.17-5.81-12.72-12.02-19.94-16.51-3.69,4.8-6.9,9.67-11.19,13.93-4.23,4.23-8.08,8.96-13,12.42-3.22,2.27-6.76,4.1-10.49,5.39-3.88,1.35-7.24,2.18-10.61,4.73-1.97,1.49-2.62,8.19-1.63,10.65,1.1,2.73,7.82,4.34,10.44,5.26,4.7,1.66,9.54,2.98,14.32,4.4,9.03,2.68,18.04,5.38,26.45,9.72,6.37,3.29,16.05,8.75,16.98,16.75,1.09,9.37-8.62,11.06-15.54,9.57-2.8-.6-9.44-1.54-11.28-4.01-2.01-2.7,3.1-5.58,3.98-8.14,3.2-9.31-9.3-16.16-15.86-19.26-9.31-4.4-19.61-7.98-29.59-10.52-1.14,7.81-1.65,15.72-3.08,23.49-1.1,6.01-3.57,14.72-10.03,16.91-15.04,5.11-14.38-29.31-14.11-36.97.07-1.93.18-3.85.29-5.78.07-1.22.89-4.82.39-5.92-1.01-2.24-6.84-2.33-9.17-3.04-2.55-.77-8.3-2.96-9.43-5.67-1.64-3.92,6.99-7.79,9.53-8.91,4.32-1.91,9.03-2.97,13.76-3.04,4.69-.07,9.3.34,13.84-1.17,4.44-1.47,2.55-6.28,2.27-10.24-.27-3.78-.54-7.56-.83-11.34-.16-2.08.45-7.96-1.98-8.74-.83-.27-3.85.92-4.61,1.07-1.88.37-3.78.64-5.69.84-6.51.71-13.02.22-19.54.24-4.09.01-8.05-1.08-11.81-2.64-3.91-1.62-7.7-3.07-11.68-4.56-1.18-.44-3.52-1.86-4.89-1.57-1.63.34-3.78,3.32-4.91,4.38-3.3,3.09-2.41,4.7-.82,8.76,1.56,4,3.55,7.8,5.62,11.56,4,7.29,8.17,14.49,11.55,22.1,3.58,8.07,14.3,36.73-2.94,37.25-7.42.23-12.3-9.12-14.78-14.93-1.15-2.69-2.09-5.25,1.52-5.74,3.31-.45,6.08-.08,8.47-2.94,5.36-6.41,2.05-17.55-.62-24.38-3.49-8.93-7.92-18.79-13.16-26.83Zm51.39-91.83c-5.25,3.47-9.93,8.23-14.74,12.29-1.31,1.1-5.44,3.41-5.56,5.21-.12,1.72,3.13,4.47,4.19,5.66,1.97,2.22,4.08,4.31,6.33,6.25,1.59,1.37,2.83,3.2,4.54,1.96,1.88-1.36,3.43-5.14,4.71-7.06,1.51-2.28,2.92-4.63,4.76-6.66.12.07.23.14.35.21-1.14,4.72-2.74,9.35-4.18,13.99-.5,1.61-1.34,2.95-.28,4.28.86,1.08,4.37,1.94,5.73,2.46,6.14,2.35,19.45,5.01,22.86-3.05,3.07-7.24-7.79-12.86-12.25-16.37-6.94-5.46-11.75-11.78-16.46-19.18Zm12.08,57.84c.19-.05.38-.1.56-.15,2.18,3.57,4.04,7.37,6,11.06,1.51,2.84,1.88,5.75,5.5,4.61,5.85-1.85,11.97-5.52,15.73-10.44,4.11-5.38,3.88-12.7-3.95-13.81-7.03-.99-14.55,1.77-21.67,1.83-3.71.03-7.43-.28-11.07-.99-1.89-.37-5.36-2.25-6.61-.74-.76.92-.42,4.79-.52,6.01-.19,2.28-.37,4.57-.56,6.85-.14,1.71-.28,3.43-.42,5.14-.14,1.65-1.16,5.33-.58,6.85,1.03,2.69,5.16,2.04,7.86,2.17,3.04.14,8.52.86,11.43-.39,2.74-1.17,1.01-3.97.47-6.52-.81-3.81-1.52-7.63-2.15-11.47Zm14.8-74.34c.05.17.09.34.14.51-3.42,2.04-6.97,3.86-10.49,5.71-2.3,1.21-5.61,1.79-5.25,4.75.7,5.75,6.07,12.85,10.49,16.36,4.05,3.22,10.72,4.92,13.36-.9,2.85-6.29-.74-15.59-1.05-22.14-.18-3.95-.03-7.93.61-11.83.31-1.88,2.51-6.79,1.02-7.95-.82-.63-3.13-.32-4.23-.41-2.28-.18-4.57-.37-6.85-.56-3.98-.33-7.99-.83-11.98-1.02-4.26-.2-3.62,2.44-3.87,6.19-.25,3.77-.3,7.66.19,11.42.61,4.61,3.61,2.57,7.3,1.8,3.53-.73,7.04-1.42,10.61-1.93Zm19.33,96.98c.06-.11.12-.22.17-.33,4.68,1.01,9.3,2.63,13.86,4.07,1.35.43,3.14,1.44,4.46.63,1.31-.8,2.06-3.81,2.58-5.2,2.33-6.22,5.21-19.51-2.6-23.26-7.74-3.71-14.05,8.98-17.9,13.63-5.21,6.29-11.25,10.54-18.05,14.9,3.57,4.79,7.69,9.21,11.55,13.78,1.18,1.39,3.98,6.1,5.68,6.5,1.66.39,4.43-2.8,5.54-3.77,2.1-1.84,4.08-3.8,5.94-5.88,1.64-1.83,4.16-3.5,2.53-5.67-1.31-1.73-4.87-3.19-6.7-4.4-2.41-1.6-4.85-3.13-7.06-4.99Zm67.46-24.72c5.52-3.54,10.65-8.32,15.65-12.56,1.18-1,4.99-3.19,4.81-4.85-.2-1.84-3.3-4.47-4.47-5.77-1.98-2.21-4.11-4.29-6.36-6.21-1.6-1.37-2.84-3.19-4.56-1.93-1.88,1.37-3.42,5.14-4.7,7.06-1.57,2.37-3.05,4.78-4.94,6.91-.13-.08-.25-.15-.38-.23,1.17-4.44,2.57-8.82,3.95-13.2.46-1.45,1.7-3.61.86-5.04-.67-1.15-3.29-1.75-4.46-2.19-6.32-2.43-18.3-5.22-23.17,1.42-5.26,7.17,6.26,13.69,10.8,17.22,7.13,5.55,11.99,11.92,16.97,19.38Zm-46.61-80.17c-.06.11-.12.22-.19.34-4.41-1-8.74-2.5-13.05-3.84-1.9-.59-3.65-1.74-5.25-.47-1.27,1.02-2,4.34-2.5,5.79-2.07,6.07-4.32,17.83,2.46,22.01,7.32,4.52,13.97-7.63,17.42-12.09,5.21-6.73,11.42-11.65,18.65-16.05-3.51-5.11-8.02-9.7-12.02-14.44-1.13-1.34-3.59-5.73-5.43-5.87-1.75-.14-4.49,3.14-5.69,4.23-2.22,2.01-4.31,4.15-6.24,6.43-1.33,1.56-3.13,2.8-1.92,4.49,1.33,1.85,5.08,3.39,6.96,4.64,2.32,1.54,4.69,3,6.79,4.83Zm19.43,96.99c-.06-.16-.11-.31-.17-.47,3.12-2.01,6.49-3.64,9.76-5.38,2.35-1.25,6.34-2.16,6.44-5,.09-2.71-2.89-7.08-4.29-9.28-1.71-2.7-3.78-5.28-6.3-7.26-4.28-3.36-10.92-4.68-13.42,1.41-2.44,5.95.75,14.44,1.11,20.65.22,3.82.14,7.66-.38,11.45-.26,1.93-2.77,8.1-1.32,9.44.84.77,4.83.44,5.98.54,1.72.14,3.45.28,5.17.42,4.01.33,8.04.8,12.06,1,4.24.2,3.54-2.4,3.8-6.14.27-3.97.55-8.42-.26-12.34-.72-3.52-3.04-1.93-6.07-1.28-4.03.86-8.05,1.63-12.12,2.27Zm14.74-74.37c-.19.05-.37.1-.56.16-.26-.43-.55-.85-.79-1.29-2.44-4.56-4.92-9.09-7.28-13.69-.61-1.2-1.23-1.38-2.44-.95-3.72,1.33-7.28,2.98-10.48,5.31-3.25,2.37-6.14,5.06-7.77,8.86-2.27,5.31.27,9.87,6.05,10.33,2.69.22,5.49-.07,8.17-.52,9.69-1.63,19.32-2.14,28.9.69,1.64.48,1.68.44,1.83-1.33.67-7.94,1.3-15.88,1.99-23.81.1-1.12-.23-1.57-1.37-1.71-6.04-.78-12.06-.82-18.1-.03-1.36.18-1.57.76-1.3,1.96.79,3.53,1.54,7.08,2.25,10.62.36,1.79.6,3.59.9,5.39Zm-157.77-23.91c-.09-.16-.18-.32-.28-.48-5.33.81-10.39,1.51-14.9,4.7-3.82,2.7-6.8,6.6-1.99,10.09,2.84,2.06,9.55,4.23,11.6.72,2.57-4.37,3.77-10.26,5.57-15.03Zm-5.08,95.7c-3.88,3.32-13.75,20.99-4.04,22.41,3.16.46,11.11-2.71,11.43-6.37.19-2.13-2.67-6.08-3.56-8-1.23-2.68-2.3-5.52-3.83-8.04Zm231.69,12.08c5.17-.27,10.06-1.32,14.4-4.24,3.66-2.46,7.75-5.97,3.37-9.87-2.42-2.16-9.66-4.92-11.92-1.85-1.47,1.99-2.07,5.78-2.93,8.12-.96,2.62-1.95,5.23-2.93,7.84ZM121.99,45.74c-4.23-3.31-8.41-6.35-13.83-7.34-4.03-.73-8.79-.72-8.78,4.43,0,3.35,3.27,10.39,7.03,10.15,2.19-.14,5.48-2.52,7.5-3.46,2.69-1.26,5.39-2.52,8.08-3.78Zm83.57,236.83c3.75,2.93,21.91,14.42,22.65,3.36.21-3.21-3.19-10.95-6.94-10.56-2.41.25-5.55,2.57-7.74,3.58-2.65,1.23-5.31,2.44-7.98,3.62Zm-95.82-5.1c.08,5.17,1.32,10.03,4.26,14.32,2.55,3.73,6.08,7.91,10.02,3.15,2.29-2.76,4.69-9.82.93-11.85-4.59-2.48-10.31-3.81-15.21-5.63Zm172.62-155.27c3.16-3.44,14.2-21.85,3.46-22.55-3.11-.2-10.97,3.14-10.7,6.8.19,2.49,2.77,6,3.81,8.25,1.16,2.5,2.3,5,3.43,7.51Zm-64.51-71.61c-.21-5.03-1.38-9.73-4.19-13.96-2.47-3.7-6.03-7.99-9.97-3.41-1.69,1.97-2.45,4.57-2.77,7.1-.36,2.84-.25,3.78,2.39,4.94,4.7,2.06,9.72,3.57,14.55,5.33Zm10.71,66.5c.51,3.68,1.08,13.93,6.16,14.59,2.43.32,5.47-2.03,7.26-3.31,1.18-.84,5.96-3.91,5.96-5.4-6.14-2.52-12.43-4.7-19.38-5.89Zm-17.72,111.86c-3.43.42-13.51,1.05-14.34,5.64-.65,3.59,5.21,12.28,8.36,13.68,2.6-6.15,4.71-12.4,5.99-19.33Zm-59.63,14.23c-2.79-2.05-10.26-8.29-13.82-6.31-2.68,1.49-5.89,13.25-3.86,15.59,6.07-2.43,11.94-5.35,17.68-9.28Zm-52.24-32.15c-.48-3.39-1.04-13.12-5.38-14.13-4.62-1.08-10.91,5.39-14.05,8.07,6.39,2.7,12.59,4.81,19.43,6.06Zm77.5-125.84c2.85,2.22,9.7,8.32,13.71,6.23,3.12-1.63,5.45-12.72,3.93-15.57-6.13,2.46-11.95,5.43-17.64,9.34Zm75.49,109.73l.29-.51c-2.42-6.13-5.39-11.97-9.23-17.64-2.12,2.54-7.88,9.84-6.51,13.46,1.58,4.18,11.81,4.16,15.46,4.69ZM117.16,99.31c3.41-.4,13.11-1.06,13.91-5.59.67-3.79-5.02-11.6-8.07-13.43-2.59,6.1-4.65,12.25-5.84,19.02Zm-32.23,52.07c2.14-2.83,8.57-10.12,5.87-13.93-1.87-2.65-12.24-5.16-15.03-3.6,2.4,6.07,5.34,11.82,9.16,17.53Z"/>
</svg>